<svg width="24" height="24" viewBox="0 0 24 24" fill="none" xmlns="http://www.w3.org/2000/svg">
<path d="M1.11914 10.7521L6.46085 1.5L11.8026 10.7521H1.11914Z" fill="black" fill-opacity="0.95"/>
<path d="M13.2633 1.5H22.5154L13.2633 10.7521V1.5Z" fill="black" fill-opacity="0.95"/>
<path d="M22.8807 8.92608C22.8807 10.1363 21.8996 11.1174 20.6894 11.1174C19.4792 11.1174 18.4981 10.1363 18.4981 8.92608C18.4981 7.71586 19.4792 6.73479 20.6894 6.73479C21.8996 6.73479 22.8807 7.71586 22.8807 8.92608Z" fill="black" fill-opacity="0.95"/>
<path d="M22.759 17.5087C22.759 20.2653 20.5243 22.5 17.7677 22.5C15.0111 22.5 12.7764 20.2653 12.7764 17.5087C12.7764 14.7521 15.0111 12.5175 17.7677 12.5175C20.5243 12.5175 22.759 14.7521 22.759 17.5087Z" fill="black" fill-opacity="0.95"/>
<path d="M7.96763 12.6134C8.93584 12.8059 9.8252 13.2813 10.5232 13.9794L6.99388 17.5087L10.5232 21.0381C9.8252 21.7361 8.93584 22.2115 7.96763 22.4041C6.99942 22.5967 5.99584 22.4978 5.0838 22.1201C4.17177 21.7423 3.39224 21.1025 2.84379 20.2817C2.29534 19.4609 2.00261 18.4959 2.00261 17.5087C2.00261 16.5215 2.29534 15.5565 2.84379 14.7357C3.39224 13.9149 4.17177 13.2752 5.0838 12.8974C5.99584 12.5196 6.99942 12.4208 7.96763 12.6134Z" fill="black" fill-opacity="0.95"/>
</svg>
